<mxfile host="65bd71144e">
    <diagram id="O4BxNEKQjHdTM0A2SPmk" name="Skill Review">
        <mxGraphModel dx="766" dy="385" grid="1" gridSize="10" guides="1" tooltips="1" connect="1" arrows="1" fold="1" page="1" pageScale="1" pageWidth="850" pageHeight="1100" math="0" shadow="0">
            <root>
                <mxCell id="0"/>
                <mxCell id="1" parent="0"/>
                <mxCell id="25" value="" style="whiteSpace=wrap;html=1;" parent="1" vertex="1">
                    <mxGeometry x="20" y="370" width="670" height="620" as="geometry"/>
                </mxCell>
                <mxCell id="8" value="" style="whiteSpace=wrap;html=1;" parent="1" vertex="1">
                    <mxGeometry x="40" y="400" width="630" height="70" as="geometry"/>
                </mxCell>
                <mxCell id="14" value="MF - Header" style="text;html=1;resizable=0;autosize=1;align=center;verticalAlign=middle;points=[];fillColor=none;strokeColor=none;rounded=0;" parent="1" vertex="1">
                    <mxGeometry x="40" y="380" width="80" height="20" as="geometry"/>
                </mxCell>
                <mxCell id="17" value="" style="whiteSpace=wrap;html=1;" parent="1" vertex="1">
                    <mxGeometry x="40" y="510" width="630" height="450" as="geometry"/>
                </mxCell>
                <mxCell id="9" value="Search with Results list Component" style="whiteSpace=wrap;html=1;" parent="1" vertex="1">
                    <mxGeometry x="60" y="620" width="590" height="40" as="geometry"/>
                </mxCell>
                <mxCell id="10" value="Topic with Skill Ratings Component" style="whiteSpace=wrap;html=1;" parent="1" vertex="1">
                    <mxGeometry x="60" y="690" width="590" height="60" as="geometry"/>
                </mxCell>
                <mxCell id="11" value="Topic with Skill Ratings Component" style="whiteSpace=wrap;html=1;" parent="1" vertex="1">
                    <mxGeometry x="60" y="780" width="590" height="60" as="geometry"/>
                </mxCell>
                <mxCell id="12" value="Topic with Skill Ratings Component" style="whiteSpace=wrap;html=1;" parent="1" vertex="1">
                    <mxGeometry x="60" y="870" width="590" height="60" as="geometry"/>
                </mxCell>
                <mxCell id="18" value="MF- Skill Review" style="text;html=1;resizable=0;autosize=1;align=center;verticalAlign=middle;points=[];fillColor=none;strokeColor=none;rounded=0;" parent="1" vertex="1">
                    <mxGeometry x="40" y="490" width="100" height="20" as="geometry"/>
                </mxCell>
                <mxCell id="24" style="edgeStyle=none;html=1;exitX=0.5;exitY=1;exitDx=0;exitDy=0;entryX=0.42;entryY=0;entryDx=0;entryDy=0;entryPerimeter=0;" parent="1" source="20" target="17" edge="1">
                    <mxGeometry relative="1" as="geometry"/>
                </mxCell>
                <mxCell id="15" value="Incubation" style="whiteSpace=wrap;html=1;" parent="1" vertex="1">
                    <mxGeometry x="60" y="415" width="90" height="30" as="geometry"/>
                </mxCell>
                <mxCell id="19" value="DEP Onboarding" style="whiteSpace=wrap;html=1;" parent="1" vertex="1">
                    <mxGeometry x="160" y="415" width="90" height="40" as="geometry"/>
                </mxCell>
                <mxCell id="20" value="Skill Review" style="whiteSpace=wrap;html=1;" parent="1" vertex="1">
                    <mxGeometry x="260" y="415" width="90" height="30" as="geometry"/>
                </mxCell>
                <mxCell id="21" value="Learning Plan" style="whiteSpace=wrap;html=1;" parent="1" vertex="1">
                    <mxGeometry x="360" y="415" width="90" height="30" as="geometry"/>
                </mxCell>
                <mxCell id="22" value="Project Proposals" style="whiteSpace=wrap;html=1;" parent="1" vertex="1">
                    <mxGeometry x="460" y="415" width="90" height="40" as="geometry"/>
                </mxCell>
                <mxCell id="23" value="Interviews" style="whiteSpace=wrap;html=1;" parent="1" vertex="1">
                    <mxGeometry x="560" y="415" width="90" height="30" as="geometry"/>
                </mxCell>
                <mxCell id="26" value="MF - Container" style="text;html=1;resizable=0;autosize=1;align=center;verticalAlign=middle;points=[];fillColor=none;strokeColor=none;rounded=0;" parent="1" vertex="1">
                    <mxGeometry x="20" y="350" width="100" height="20" as="geometry"/>
                </mxCell>
                <mxCell id="28" value="Banner with details and Chart Component" style="whiteSpace=wrap;html=1;" vertex="1" parent="1">
                    <mxGeometry x="60" y="530" width="590" height="60" as="geometry"/>
                </mxCell>
            </root>
        </mxGraphModel>
    </diagram>
</mxfile>